<svg width="327" height="137" viewBox="0 0 327 137" fill="none" xmlns="http://www.w3.org/2000/svg">
<g clip-path="url(#clip0_1719_1223)">
<g filter="url(#filter0_di_1719_1223)">
<path d="M185.926 15.135C185.926 19.1501 185.989 23.1688 185.915 27.1839C185.683 39.5201 185.358 51.8528 185.147 64.189C184.903 78.2064 184.741 92.2274 184.547 106.245C184.508 109.022 182.974 110.558 180.189 110.569C178.912 110.572 177.636 110.583 176.355 110.569C173.929 110.537 172.286 108.721 172.353 106.28C172.473 101.95 172.543 97.6152 172.621 93.2809C172.801 82.8494 172.963 72.4143 173.15 61.9792C173.291 54.1512 173.464 46.3267 173.605 38.4986C173.792 28.3721 173.876 18.2457 174.173 8.12273C174.321 3.05417 177.896 0.762856 182.967 1.13883C188.514 1.55027 193.381 3.83804 197.958 6.86711C210.498 15.1563 221.253 25.2579 229.473 37.9666C234.184 45.2519 238.045 52.9913 241.677 60.8513C245.786 69.7435 249.809 78.6782 253.907 87.5774C256.513 93.2383 260.18 98.0018 266.104 100.389C268.672 101.425 271.496 102.177 274.243 102.336C280.478 102.698 286.737 102.631 292.989 102.702C303.776 102.822 314.56 102.929 325.347 103.003C326.377 103.01 326.877 103.301 326.708 104.358C326.514 105.56 326.451 106.827 326.02 107.944C325.4 109.558 324.127 110.303 322.297 110.331C312.92 110.466 303.547 110.682 294.174 110.884C286.61 111.047 279.043 111.416 271.479 111.352C260.522 111.264 251.925 106.355 246.099 97.1506C243.123 92.4473 240.997 87.1943 238.599 82.1364C233.271 70.8927 228.492 59.3793 222.321 48.547C215.145 35.9448 205.409 25.7687 193.247 17.969C191.173 16.6389 188.793 15.7912 186.554 14.72C186.346 14.8583 186.138 15.0002 185.926 15.1385V15.135Z" fill="#6100FF"/>
</g>
<g filter="url(#filter1_di_1719_1223)">
<path d="M298.836 95.7536C298.103 95.7536 297.369 95.7536 296.639 95.7536C292.545 95.743 288.444 95.86 284.357 95.6898C273.309 95.2393 265.35 89.8125 260.568 79.9237C255.977 70.4321 251.752 60.7632 247.313 51.1971C239.054 33.4128 227.671 18.0617 212.211 5.90643C210.801 4.79624 209.334 3.75345 207.892 2.67873C210.476 -0.431925 215.935 -1.00653 219.278 1.87358C223.577 5.58011 227.763 9.46045 231.634 13.6104C241.328 23.9958 248.575 36.0163 254.401 48.959C258.801 58.7379 263.283 68.4777 267.864 78.1715C270.033 82.7612 272.843 86.9324 277.272 89.7132C280.834 91.9513 284.776 92.4621 288.892 92.5259C291.364 92.5649 293.857 92.9586 296.283 93.4623C297.291 93.6716 298.155 94.5831 299.083 95.179C299.002 95.3705 298.921 95.5621 298.84 95.7501L298.836 95.7536Z" fill="#6100FF"/>
</g>
<g filter="url(#filter2_di_1719_1223)">
<path d="M140.258 14.7167C138.054 15.756 135.719 16.5824 133.674 17.8699C124.745 23.4847 117.114 30.5644 110.721 38.9812C104.187 47.5861 99.6308 57.3082 95.1206 67.0445C91.3545 75.1741 87.7435 83.371 83.9421 91.4828C80.31 99.2258 75.0593 105.472 67.0263 108.944C62.8863 110.736 58.5419 111.498 54.0458 111.406C47.314 111.271 40.5787 111.147 33.8469 110.994C23.9026 110.771 13.9618 110.533 4.01756 110.296C1.93702 110.246 0.240846 108.341 0.0327917 105.777C-0.0342088 104.947 0.0222131 104.103 0.0222131 102.957C1.87707 102.957 3.66492 102.968 5.45278 102.957C18.8353 102.851 32.2213 102.794 45.6037 102.592C49.3699 102.535 53.2065 102.429 56.8704 101.659C64.3568 100.084 69.2831 95.1042 72.4533 88.3261C77.4642 77.6143 82.2848 66.8104 87.3345 56.1129C91.4673 47.3591 96.1186 38.8926 102.075 31.2064C108.898 22.4029 117.033 15.0359 126.117 8.67275C130.433 5.65077 134.866 2.83806 140.099 1.74915C142.092 1.33416 144.2 1.1178 146.217 1.28451C150.181 1.60728 152.357 4.01209 152.575 8.06977C152.734 10.9818 152.674 13.908 152.723 16.8236C152.896 27.3473 153.066 37.871 153.249 48.3948C153.418 58.2091 153.602 68.0235 153.781 77.8378C153.954 87.2975 154.141 96.7606 154.293 106.224C154.339 109.129 152.896 110.555 150.036 110.565C148.848 110.569 147.66 110.569 146.468 110.565C143.798 110.555 142.226 108.98 142.197 106.266C142.169 103.525 142.169 100.779 142.137 98.0376C142.049 90.0782 142.003 82.1189 141.852 74.1596C141.682 65.1434 141.404 56.1271 141.206 47.1108C141.044 39.7261 140.917 32.3414 140.811 24.9567C140.766 21.658 140.804 18.3559 140.804 15.0537C140.625 14.9366 140.441 14.8196 140.261 14.7061L140.258 14.7167Z" fill="#6100FF"/>
</g>
<g filter="url(#filter3_di_1719_1223)">
<path d="M27.7642 95.5051C28.8009 93.721 30.5676 93.1322 32.3696 92.8981C34.5347 92.6179 36.7387 92.5966 38.9286 92.5576C45.9142 92.4263 51.4859 89.6597 55.5376 83.8499C58.5386 79.5439 60.5204 74.7272 62.7349 70.0169C68.1443 58.5177 73.2575 46.859 79.21 35.6472C86.0617 22.7364 95.5228 11.7764 106.719 2.38055C110.524 -0.811681 115.524 -0.723009 118.871 2.59337C118.578 2.84165 118.307 3.10767 118.003 3.32758C104.035 13.3938 92.8851 26.0385 84.7005 41.1626C79.8377 50.1541 75.7295 59.557 71.2933 68.779C69.0188 73.507 67.0617 78.4195 64.4311 82.9348C60.1501 90.2769 53.5629 94.6254 45.0926 95.3845C39.4575 95.8881 33.7554 95.6363 28.0815 95.7143C28.0145 95.7143 27.9475 95.6257 27.7677 95.5015L27.7642 95.5051Z" fill="#6100FF"/>
</g>
</g>
<defs>
<filter id="filter0_di_1719_1223" x="168.351" y="-2.90088" width="170.39" height="126.261" filterUnits="userSpaceOnUse" color-interpolation-filters="sRGB">
<feFlood flood-opacity="0" result="BackgroundImageFix"/>
<feColorMatrix in="SourceAlpha" type="matrix" values="0 0 0 0 0 0 0 0 0 0 0 0 0 0 0 0 0 0 127 0" result="hardAlpha"/>
<feOffset dx="4" dy="4"/>
<feGaussianBlur stdDeviation="4"/>
<feComposite in2="hardAlpha" operator="out"/>
<feColorMatrix type="matrix" values="0 0 0 0 0 0 0 0 0 0 0 0 0 0 0 0 0 0 0.25 0"/>
<feBlend mode="normal" in2="BackgroundImageFix" result="effect1_dropShadow_1719_1223"/>
<feBlend mode="normal" in="SourceGraphic" in2="effect1_dropShadow_1719_1223" result="shape"/>
<feColorMatrix in="SourceAlpha" type="matrix" values="0 0 0 0 0 0 0 0 0 0 0 0 0 0 0 0 0 0 127 0" result="hardAlpha"/>
<feOffset dx="-4" dy="-4"/>
<feGaussianBlur stdDeviation="4"/>
<feComposite in2="hardAlpha" operator="arithmetic" k2="-1" k3="1"/>
<feColorMatrix type="matrix" values="0 0 0 0 0 0 0 0 0 0 0 0 0 0 0 0 0 0 0.25 0"/>
<feBlend mode="normal" in2="shape" result="effect2_innerShadow_1719_1223"/>
</filter>
<filter id="filter1_di_1719_1223" x="203.892" y="-4" width="107.191" height="111.783" filterUnits="userSpaceOnUse" color-interpolation-filters="sRGB">
<feFlood flood-opacity="0" result="BackgroundImageFix"/>
<feColorMatrix in="SourceAlpha" type="matrix" values="0 0 0 0 0 0 0 0 0 0 0 0 0 0 0 0 0 0 127 0" result="hardAlpha"/>
<feOffset dx="4" dy="4"/>
<feGaussianBlur stdDeviation="4"/>
<feComposite in2="hardAlpha" operator="out"/>
<feColorMatrix type="matrix" values="0 0 0 0 0 0 0 0 0 0 0 0 0 0 0 0 0 0 0.25 0"/>
<feBlend mode="normal" in2="BackgroundImageFix" result="effect1_dropShadow_1719_1223"/>
<feBlend mode="normal" in="SourceGraphic" in2="effect1_dropShadow_1719_1223" result="shape"/>
<feColorMatrix in="SourceAlpha" type="matrix" values="0 0 0 0 0 0 0 0 0 0 0 0 0 0 0 0 0 0 127 0" result="hardAlpha"/>
<feOffset dx="-4" dy="-4"/>
<feGaussianBlur stdDeviation="4"/>
<feComposite in2="hardAlpha" operator="arithmetic" k2="-1" k3="1"/>
<feColorMatrix type="matrix" values="0 0 0 0 0 0 0 0 0 0 0 0 0 0 0 0 0 0 0.25 0"/>
<feBlend mode="normal" in2="shape" result="effect2_innerShadow_1719_1223"/>
</filter>
<filter id="filter2_di_1719_1223" x="-4" y="-2.77197" width="170.294" height="126.186" filterUnits="userSpaceOnUse" color-interpolation-filters="sRGB">
<feFlood flood-opacity="0" result="BackgroundImageFix"/>
<feColorMatrix in="SourceAlpha" type="matrix" values="0 0 0 0 0 0 0 0 0 0 0 0 0 0 0 0 0 0 127 0" result="hardAlpha"/>
<feOffset dx="4" dy="4"/>
<feGaussianBlur stdDeviation="4"/>
<feComposite in2="hardAlpha" operator="out"/>
<feColorMatrix type="matrix" values="0 0 0 0 0 0 0 0 0 0 0 0 0 0 0 0 0 0 0.3 0"/>
<feBlend mode="normal" in2="BackgroundImageFix" result="effect1_dropShadow_1719_1223"/>
<feBlend mode="normal" in="SourceGraphic" in2="effect1_dropShadow_1719_1223" result="shape"/>
<feColorMatrix in="SourceAlpha" type="matrix" values="0 0 0 0 0 0 0 0 0 0 0 0 0 0 0 0 0 0 127 0" result="hardAlpha"/>
<feOffset dx="-4" dy="-4"/>
<feGaussianBlur stdDeviation="4"/>
<feComposite in2="hardAlpha" operator="arithmetic" k2="-1" k3="1"/>
<feColorMatrix type="matrix" values="0 0 0 0 0 0 0 0 0 0 0 0 0 0 0 0 0 0 0.3 0"/>
<feBlend mode="normal" in2="shape" result="effect2_innerShadow_1719_1223"/>
</filter>
<filter id="filter3_di_1719_1223" x="23.7642" y="-3.95508" width="107.106" height="111.669" filterUnits="userSpaceOnUse" color-interpolation-filters="sRGB">
<feFlood flood-opacity="0" result="BackgroundImageFix"/>
<feColorMatrix in="SourceAlpha" type="matrix" values="0 0 0 0 0 0 0 0 0 0 0 0 0 0 0 0 0 0 127 0" result="hardAlpha"/>
<feOffset dx="4" dy="4"/>
<feGaussianBlur stdDeviation="4"/>
<feComposite in2="hardAlpha" operator="out"/>
<feColorMatrix type="matrix" values="0 0 0 0 0 0 0 0 0 0 0 0 0 0 0 0 0 0 0.3 0"/>
<feBlend mode="normal" in2="BackgroundImageFix" result="effect1_dropShadow_1719_1223"/>
<feBlend mode="normal" in="SourceGraphic" in2="effect1_dropShadow_1719_1223" result="shape"/>
<feColorMatrix in="SourceAlpha" type="matrix" values="0 0 0 0 0 0 0 0 0 0 0 0 0 0 0 0 0 0 127 0" result="hardAlpha"/>
<feOffset dx="-4" dy="-4"/>
<feGaussianBlur stdDeviation="4"/>
<feComposite in2="hardAlpha" operator="arithmetic" k2="-1" k3="1"/>
<feColorMatrix type="matrix" values="0 0 0 0 0 0 0 0 0 0 0 0 0 0 0 0 0 0 0.3 0"/>
<feBlend mode="normal" in2="shape" result="effect2_innerShadow_1719_1223"/>
</filter>
<clipPath id="clip0_1719_1223">
<rect width="327" height="137" fill="white"/>
</clipPath>
</defs>
</svg>
